<svg width="18" height="28" viewBox="0 0 18 28" fill="none" xmlns="http://www.w3.org/2000/svg">
<path fill-rule="evenodd" clip-rule="evenodd" d="M5.54697 0.0603104C4.37328 0.251674 3.47606 0.634074 2.53257 1.34504C1.55552 2.08124 0.737322 3.21484 0.337356 4.38652C-0.019703 5.43257 0.000200237 4.87012 0.000200237 13.903C0.000200237 21.6118 0.00596451 22.1141 0.0991719 22.5495C0.595607 24.8681 2.20879 26.7195 4.3778 27.46C5.35468 27.7934 5.40531 27.7971 9.0001 27.7971C11.976 27.7971 12.3342 27.7877 12.7523 27.6982C15.3996 27.1314 17.3342 25.1967 17.901 22.5495C17.9942 22.1141 18 21.6118 18 13.903C18 6.19427 17.9942 5.69196 17.901 5.2566C17.4046 2.93794 15.7894 1.0844 13.6224 0.346404C12.6539 0.0166432 12.6783 0.0184922 9.19043 0.00332014C6.75448 -0.00728397 5.87727 0.0064198 5.54697 0.0603104ZM12.7251 2.33704C14.1305 2.7698 15.2359 3.8748 15.673 5.28379L15.8248 5.77321V13.903V22.0328L15.673 22.5223C15.2361 23.9307 14.1335 25.0333 12.7251 25.4701L12.2357 25.6219H9.0001H5.76449L5.27507 25.4701C3.86668 25.0333 2.76407 23.9307 2.32723 22.5223L2.1754 22.0328V13.903V5.77321L2.32723 5.28379C2.73231 3.97785 3.81404 2.82554 5.00888 2.42715C5.79233 2.16591 5.85041 2.16237 9.13605 2.17472L12.2357 2.18635L12.7251 2.33704ZM8.63091 4.44476C8.37179 4.52404 8.03899 4.88007 7.96416 5.15801C7.83397 5.64144 8.0274 6.14957 8.43906 6.40548C8.7475 6.59723 9.27858 6.5894 9.58197 6.38863C9.92141 6.16398 10.0605 5.89817 10.0605 5.47412C10.0605 5.0555 9.92168 4.78441 9.59746 4.56989C9.36423 4.4155 8.91603 4.35748 8.63091 4.44476ZM8.63091 8.79516C8.37179 8.87445 8.03899 9.23047 7.96416 9.50841C7.83397 9.99185 8.0274 10.5 8.43906 10.7559C8.7475 10.9476 9.27858 10.9398 9.58197 10.739C9.92141 10.5144 10.0605 10.2486 10.0605 9.82452C10.0605 9.4059 9.92168 9.13482 9.59746 8.92029C9.36423 8.7659 8.91603 8.70788 8.63091 8.79516ZM8.63091 13.1456C8.37179 13.2249 8.03899 13.5809 7.96416 13.8588C7.83397 14.3423 8.0274 14.8504 8.43906 15.1063C8.7475 15.298 9.27858 15.2902 9.58197 15.0894C9.92141 14.8648 10.0605 14.599 10.0605 14.1749C10.0605 13.7563 9.92168 13.4852 9.59746 13.2707C9.36423 13.1163 8.91603 13.0583 8.63091 13.1456ZM4.94541 17.4421C4.52854 17.8332 4.18034 18.1728 4.17159 18.1967C4.16283 18.2205 5.24924 19.3952 6.58573 20.8073L9.01582 23.3746L9.16378 23.2203C9.4979 22.872 13.6575 18.4296 13.753 18.3191L13.8565 18.1994L13.2908 17.6655C12.9797 17.3719 12.6243 17.0414 12.501 16.9312L12.2768 16.7307L10.6626 18.4437C9.77474 19.3859 9.02914 20.1567 9.00565 20.1567C8.98215 20.1567 8.23465 19.3859 7.3445 18.4438C6.45441 17.5016 5.72098 16.7308 5.71473 16.7308C5.70842 16.7308 5.36224 17.0509 4.94541 17.4421Z" fill="white"/>
</svg>
