<svg width="30" height="30" viewBox="0 0 30 30" fill="none" xmlns="http://www.w3.org/2000/svg">
<path fill-rule="evenodd" clip-rule="evenodd" d="M6.09419 3.07751C5.19171 3.27327 4.4207 3.96423 4.11326 4.85286L4 5.18012V14.0586V22.9371L4.10851 23.2815C4.31851 23.948 4.79511 24.5092 5.40612 24.8096C6.05618 25.1292 5.58267 25.1124 13.9566 25.1131C18.3621 25.1136 21.5618 25.0956 21.5618 25.0704C21.5618 25.0465 21.4103 24.5402 21.2249 23.9453C21.0397 23.3504 20.8975 22.8637 20.909 22.8637C20.9423 22.8637 22.5987 24.2931 23.3498 24.9701C24.1181 25.6625 26.9051 28 26.9624 28C27.0205 28 27.0075 5.67741 26.9492 5.30241C26.7881 4.26566 25.8568 3.29705 24.8075 3.07506C24.3273 2.97341 6.56329 2.97576 6.09419 3.07751ZM13.4785 8.99507C13.5269 9.05333 13.5257 9.07187 13.4723 9.08787C12.17 9.47837 11.4042 9.80563 10.7034 10.2713C10.2061 10.6017 10.1489 10.6769 10.5241 10.5072C12.4576 9.63217 14.8172 9.29352 16.9475 9.58526C18.0202 9.73216 19.352 10.1094 20.2329 10.5158C20.4335 10.6084 20.6065 10.6752 20.6174 10.6644C20.6557 10.6261 19.8167 10.1019 19.3329 9.86184C18.8636 9.62899 18.1462 9.34312 17.7037 9.21266C17.5052 9.1541 17.499 9.14672 17.5765 9.06116C17.6855 8.94087 18.0059 8.94351 18.6264 9.06982C19.4307 9.2335 20.3072 9.59988 21.0086 10.0656C21.2952 10.256 21.328 10.2984 21.5827 10.8092C22.4945 12.6381 23.1101 14.951 23.2091 16.92L23.2412 17.5593L22.9213 17.866C22.4748 18.2941 22.1434 18.5336 21.6598 18.7775C21.134 19.0428 20.5417 19.2302 19.9454 19.3199C19.1234 19.4436 19.1756 19.461 18.724 18.9136C18.3395 18.4476 18.2658 18.3153 18.3899 18.3135C18.5221 18.3116 19.2878 17.9644 19.631 17.7508C19.9845 17.5308 20.5331 17.0709 20.5331 16.9946C20.5331 16.9735 20.2342 17.1098 19.8689 17.2974C19.1184 17.6828 18.6485 17.8652 17.9514 18.0416C16.1754 18.4912 14.4269 18.456 12.7687 17.9372C12.2949 17.789 11.0361 17.2928 10.691 17.1181C10.554 17.0488 10.4418 17.0097 10.4418 17.0313C10.4418 17.0816 10.8467 17.469 11.1071 17.6678C11.3742 17.8716 11.9633 18.1816 12.3371 18.315L12.6405 18.4232L12.2147 18.9484L11.7889 19.4736L11.495 19.4529C10.6398 19.3926 9.71776 19.1157 9.0509 18.719C8.81625 18.5794 8.49225 18.3208 8.24496 18.0757L7.83142 17.6658L7.86071 16.8773C7.92121 15.2481 8.34259 13.4339 9.07196 11.6621C9.48781 10.6518 9.67857 10.3136 9.94016 10.1229C10.5369 9.68769 11.6639 9.20224 12.4258 9.05216C13.1508 8.90937 13.3962 8.89606 13.4785 8.99507ZM12.83 13.5712C12.5478 13.6185 12.3215 13.7524 12.0887 14.0097C11.8306 14.2949 11.7498 14.515 11.7474 14.9391C11.7457 15.2418 11.7676 15.3487 11.8729 15.5506C12.133 16.0488 12.5462 16.3059 13.0897 16.3077C13.8237 16.3102 14.3478 15.7897 14.3989 15.0074C14.4188 14.7043 14.4044 14.6215 14.2859 14.358C14.0229 13.7728 13.456 13.4664 12.83 13.5712ZM17.6501 13.5721C16.7708 13.749 16.304 14.7441 16.7151 15.5654C16.9616 16.058 17.3615 16.3091 17.8985 16.3083C18.6684 16.3071 19.2386 15.7095 19.2284 14.9146C19.2232 14.5032 19.1342 14.2801 18.8532 13.9744C18.5331 13.6259 18.1008 13.4814 17.6501 13.5721Z" fill="#FFE500"/>
</svg>
