<svg width="19" height="21" viewBox="0 0 19 21" fill="none" xmlns="http://www.w3.org/2000/svg">
<path fill-rule="evenodd" clip-rule="evenodd" d="M1.87543 0.462336C1.15344 0.618949 0.536633 1.17171 0.29068 1.88262L0.200073 2.14442V9.2472V16.35L0.286878 16.6256C0.454884 17.1587 0.836159 17.6077 1.32497 17.848C1.84502 18.1037 1.46621 18.0902 8.16535 18.0909C11.6897 18.0912 14.2495 18.0768 14.2495 18.0566C14.2495 18.0375 14.1283 17.6325 13.98 17.1566C13.8318 16.6807 13.7181 16.2913 13.7273 16.2913C13.7539 16.2913 15.079 17.4348 15.6799 17.9764C16.2946 18.5303 18.5242 20.4003 18.57 20.4003C18.6165 20.4003 18.6061 2.54226 18.5594 2.24226C18.4306 1.41286 17.6855 0.637968 16.8461 0.460379C16.4619 0.379059 2.25071 0.380937 1.87543 0.462336ZM7.78286 5.19639C7.82162 5.243 7.8206 5.25783 7.77788 5.27063C6.73607 5.58303 6.12346 5.84483 5.56281 6.21735C5.16496 6.4817 5.11918 6.54189 5.41934 6.40605C6.96615 5.70607 8.85379 5.43514 10.5581 5.66854C11.4162 5.78606 12.4816 6.08786 13.1864 6.41298C13.3468 6.48702 13.4853 6.54052 13.494 6.53183C13.5246 6.50119 12.8534 6.08183 12.4664 5.8898C12.0909 5.70352 11.517 5.47482 11.163 5.37046C11.0042 5.32361 10.9993 5.3177 11.0613 5.24926C11.1485 5.15303 11.4048 5.15514 11.9012 5.25618C12.5446 5.38713 13.2458 5.68024 13.8069 6.05283C14.0363 6.20514 14.0625 6.23907 14.2662 6.6477C14.9957 8.1108 15.4882 9.96112 15.5673 11.5363L15.593 12.0477L15.3371 12.2931C14.9799 12.6356 14.7148 12.8272 14.3279 13.0224C13.9072 13.2345 13.4334 13.3845 12.9564 13.4562C12.2988 13.5552 12.3405 13.5691 11.9792 13.1312C11.6716 12.7584 11.6127 12.6526 11.712 12.6511C11.8178 12.6496 12.4303 12.3719 12.7049 12.201C12.9877 12.025 13.4265 11.657 13.4265 11.596C13.4265 11.5791 13.1875 11.6882 12.8952 11.8383C12.2948 12.1466 11.9188 12.2925 11.3612 12.4336C9.94036 12.7933 8.54161 12.7651 7.215 12.3501C6.836 12.2315 5.82899 11.8345 5.5529 11.6948C5.44324 11.6393 5.3535 11.6081 5.3535 11.6254C5.3535 11.6656 5.67744 11.9755 5.88573 12.1345C6.09943 12.2976 6.57069 12.5456 6.86978 12.6524L7.11244 12.7389L6.77181 13.1591L6.43121 13.5792L6.19607 13.5626C5.51194 13.5144 4.77428 13.2929 4.24079 12.9756C4.05307 12.8639 3.79387 12.657 3.59604 12.4609L3.26521 12.133L3.28864 11.5021C3.33704 10.1988 3.67415 8.74747 4.25764 7.33C4.59032 6.52177 4.74293 6.25124 4.9522 6.09862C5.42957 5.75048 6.33116 5.36212 6.94068 5.24206C7.52068 5.12783 7.71702 5.11718 7.78286 5.19639ZM7.26411 8.85731C7.03834 8.89512 6.85724 9.00223 6.67101 9.20807C6.46456 9.43622 6.39994 9.61232 6.39798 9.95161C6.39661 10.1938 6.41417 10.2793 6.49842 10.4408C6.70648 10.8394 7.03704 11.045 7.47185 11.0465C8.05907 11.0485 8.47832 10.6321 8.51923 10.0063C8.5351 9.76377 8.52358 9.69752 8.42882 9.4867C8.21841 9.01855 7.76487 8.77345 7.26411 8.85731ZM11.1201 8.85798C10.4167 8.99953 10.0433 9.79559 10.3721 10.4527C10.5693 10.8468 10.8893 11.0476 11.3189 11.047C11.9348 11.046 12.391 10.5679 12.3828 9.93204C12.3786 9.60285 12.3074 9.42444 12.0827 9.17982C11.8266 8.90103 11.4807 8.78543 11.1201 8.85798Z" fill="black"/>
</svg>
