<svg width="30" height="30" viewBox="0 0 30 30" fill="none" xmlns="http://www.w3.org/2000/svg">
<path fill-rule="evenodd" clip-rule="evenodd" d="M3.31252 5.03121C3.29531 5.04834 3.28177 5.13786 3.28238 5.2301C3.28336 5.38018 3.41367 5.55393 4.52287 6.88409C5.42831 7.96987 5.77556 8.41963 5.81156 8.5531C5.84508 8.67735 5.85689 10.5383 5.84841 14.3671L5.83594 19.9984L5.73333 20.1856C5.67684 20.2885 5.03878 21.0873 4.31536 21.9606C3.0413 23.4986 3 23.5548 3 23.7506V23.9527H6.5625H10.125L10.123 23.7304C10.1211 23.5089 10.1165 23.5027 8.76492 21.8728C7.78505 20.6911 7.38891 20.1791 7.3372 20.0276C7.27481 19.8448 7.266 19.2114 7.26839 15.0881C7.27022 11.9016 7.28653 10.3811 7.31827 10.4284C7.34419 10.467 8.7548 13.5205 10.4529 17.214L13.5405 23.9293L13.9083 23.9428L14.2762 23.9562L16.9432 17.204C18.4101 13.4903 19.628 10.4315 19.6496 10.4066C19.6713 10.3818 19.6834 12.875 19.6765 15.9471L19.6641 21.5328L18.5941 22.5678L17.5243 23.6028L17.5395 23.7895L17.5547 23.9761L22.2539 23.9881L26.9531 24V23.8005C26.9531 23.603 26.9428 23.5906 25.9657 22.6186C25.4228 22.0783 24.9585 21.6004 24.9341 21.5566C24.8735 21.4478 24.874 7.55183 24.9346 7.43887C24.9593 7.39277 25.4341 6.91731 25.9897 6.38233L27 5.40957V5.20478V5H23.697C20.5991 5 20.3912 5.0051 20.3503 5.08189C20.3263 5.12696 19.2685 7.74347 17.9998 10.8964C16.731 14.0493 15.6785 16.6554 15.6609 16.6877C15.643 16.7206 14.4506 14.1716 12.9409 10.8731L10.2529 5H6.79833C4.8983 5 3.32967 5.01404 3.31252 5.03121Z" fill="#FFE500"/>
</svg>
