<svg width="44" height="44" viewBox="0 0 44 44" fill="none" xmlns="http://www.w3.org/2000/svg">
<rect width="44" height="44" rx="4" fill="#FFE500"/>
<path fill-rule="evenodd" clip-rule="evenodd" d="M30.9878 13.2992C29.5008 13.8366 11.1751 20.7524 10.9051 20.8781C10.0082 21.2956 9.90338 21.8472 10.65 22.2203C10.7221 22.2563 11.9625 22.646 13.4065 23.0862L14.3074 23.3608C15.4039 23.6952 16.5913 23.5429 17.568 22.9427L21.9934 20.2233C25.2722 18.2085 28.021 16.5374 28.1017 16.5098C28.3041 16.4404 28.4783 16.4469 28.5597 16.5268C28.6166 16.5827 28.619 16.6108 28.5737 16.693C28.5438 16.7473 26.3665 18.6897 23.7352 21.0093C21.104 23.3289 18.9441 25.2449 18.9354 25.2671C18.9267 25.2893 18.8377 26.4474 18.7376 27.8406L18.5699 30.1748C18.5625 30.2775 18.6513 30.3611 18.7534 30.3476C18.8622 30.3331 19.0344 30.278 19.1362 30.225C19.238 30.172 19.923 29.5625 20.6585 28.8705C21.394 28.1784 22.0213 27.6026 22.0524 27.5909C22.0835 27.5792 23.2548 28.3942 24.6552 29.402C26.0556 30.4098 27.3112 31.2843 27.4453 31.3451C27.7971 31.5048 28.1934 31.5207 28.4508 31.3854C28.6807 31.2645 28.9054 30.9644 28.9999 30.6518C29.0364 30.5308 29.8371 26.897 30.7791 22.5766C32.3474 15.3834 32.4918 14.687 32.4923 14.3136C32.4929 13.9609 32.4779 13.877 32.3817 13.6913C32.3139 13.5604 32.1982 13.4268 32.0851 13.3487C31.8266 13.1701 31.3986 13.1508 30.9878 13.2992Z" fill="black"/>
</svg>
