<svg width="44" height="44" viewBox="0 0 44 44" fill="none" xmlns="http://www.w3.org/2000/svg">
<rect width="44" height="44" rx="4" fill="#FFE500"/>
<path fill-rule="evenodd" clip-rule="evenodd" d="M26.2047 12.2562C24.2542 12.5982 22.7136 13.9818 22.1978 15.8551C22.1089 16.1777 22.0907 16.3692 22.0881 17.0076C22.0864 17.4287 22.1016 17.8637 22.122 17.9742C22.1406 18.0752 22.0578 18.1662 21.9554 18.1571L21.8351 18.1464C19.7291 17.9593 18.0244 17.4902 16.3279 16.6311C14.7611 15.8376 13.1285 14.5918 12.1275 13.4257C11.9779 13.2515 11.8341 13.1158 11.8079 13.1243C11.7817 13.1327 11.678 13.3203 11.5773 13.5411C10.8905 15.0476 11.0187 16.7893 11.916 18.1421C12.1787 18.538 12.6065 19.0058 12.9541 19.2772L13.1613 19.4389C13.2119 19.4784 13.184 19.5595 13.1198 19.5595C12.7003 19.5595 11.823 19.3298 11.352 19.0967C11.2476 19.045 11.1447 19.0028 11.1233 19.0028C11.0558 19.0028 11.1452 19.8533 11.2554 20.2599C11.6897 21.8618 12.915 23.1285 14.5424 23.6579C14.8125 23.7458 15.0029 23.829 14.9656 23.843C14.7498 23.9233 14.041 23.9776 13.4904 23.9559L12.9953 23.9364C12.934 23.934 12.8877 23.9914 12.9031 24.0507C12.9556 24.2539 13.3086 24.9045 13.5282 25.2033C14.3734 26.3526 15.7532 27.142 17.0999 27.2467C17.3037 27.2626 17.4704 27.2914 17.4704 27.3108C17.4704 27.3892 16.3985 28.0339 15.743 28.3497C14.2505 29.0686 12.7758 29.3797 11.0391 29.3418L10.448 29.3288C10.3671 29.3271 10.336 29.4334 10.4051 29.4755C10.771 29.6984 11.8795 30.2415 12.3778 30.442C15.0598 31.521 18.191 31.7667 21.1466 31.13C25.4963 30.193 29.0746 27.2624 30.8818 23.1568C31.6546 21.4013 32.0422 19.6774 32.0819 17.8196L32.0903 17.4233C32.0962 17.1456 32.2268 16.8853 32.4459 16.7144C32.8886 16.3691 33.3861 15.909 33.7606 15.4982C34.0809 15.1471 34.5497 14.5408 34.5219 14.5138C34.5124 14.5046 34.3677 14.5513 34.2004 14.6177C33.5669 14.8688 32.0972 15.2306 31.8776 15.1896C31.8233 15.1794 31.8626 15.1341 32.0047 15.0428C32.3656 14.811 33.0103 14.17 33.2842 13.7706C33.5221 13.4237 33.8701 12.7437 33.8716 12.6227C33.8719 12.5971 33.5787 12.7157 33.2199 12.8862C32.5716 13.1944 31.7257 13.4914 31.0628 13.6437C30.8455 13.6936 30.6174 13.6346 30.4515 13.4856L30.4262 13.4628C29.3068 12.4572 27.6916 11.9955 26.2047 12.2562Z" fill="black"/>
</svg>
