<?xml version="1.0" standalone="no"?>
<!DOCTYPE svg PUBLIC "-//W3C//DTD SVG 20010904//EN"
 "http://www.w3.org/TR/2001/REC-SVG-20010904/DTD/svg10.dtd">
<svg version="1.0" xmlns="http://www.w3.org/2000/svg"
 width="296.000000pt" height="296.000000pt" viewBox="0 0 296.000000 296.000000"
 preserveAspectRatio="xMidYMid meet">
<metadata>
Created by potrace 1.14, written by Peter Selinger 2001-2017
</metadata>
<g transform="translate(0.000000,296.000000) scale(0.100000,-0.100000)"
fill="#000000" stroke="none">
<path d="M1285 2439 c-22 -10 -52 -19 -67 -19 -15 0 -48 -14 -72 -32 -44 -30
-45 -32 -25 -46 20 -14 20 -14 -5 -47 -15 -19 -30 -45 -36 -59 -8 -21 -6 -27
11 -36 17 -10 28 -4 80 44 42 39 68 56 87 56 44 0 74 11 68 26 -5 13 12 31 47
49 12 6 24 19 26 30 2 11 8 23 14 27 39 24 -77 31 -128 7z"/>
<path d="M1761 2421 c-37 -35 -41 -79 -10 -107 l21 -19 -7 33 c-6 30 -3 38 25
67 18 18 29 38 26 44 -11 17 -21 13 -55 -18z"/>
<path d="M1093 2403 c-13 -2 -23 -10 -23 -17 0 -8 -23 -25 -52 -39 -42 -21
-49 -27 -34 -33 25 -10 75 19 109 61 15 19 27 34 25 34 -2 -1 -13 -4 -25 -6z"/>
<path d="M1470 2391 c0 -5 7 -11 15 -15 8 -3 12 -12 9 -21 -8 -20 19 -20 36 0
10 12 10 18 0 30 -13 16 -60 21 -60 6z"/>
<path d="M1563 2393 c-7 -3 -13 -11 -13 -18 0 -8 6 -17 13 -21 6 -4 9 -4 5 1
-4 4 -3 14 4 22 13 15 9 22 -9 16z"/>
<path d="M1970 2342 c0 -5 11 -12 25 -14 14 -3 25 -1 25 3 0 5 -4 9 -9 9 -5 0
-16 3 -25 6 -9 3 -16 2 -16 -4z"/>
<path d="M1880 2314 c0 -3 4 -14 10 -24 8 -15 5 -20 -22 -29 -17 -6 -39 -11
-50 -11 -16 0 -55 -17 -68 -30 -3 -3 -18 -12 -34 -20 -16 -8 -28 -19 -27 -24
4 -13 -27 -28 -40 -20 -8 4 -8 9 0 17 17 17 13 25 -11 29 -15 2 -24 11 -26 26
-2 12 -11 23 -20 24 -9 1 -26 2 -37 3 -28 2 -89 -58 -141 -137 -29 -46 -50
-68 -63 -68 -29 0 -34 -17 -14 -45 12 -17 25 -24 38 -20 13 3 26 -3 35 -16 15
-19 17 -18 57 46 44 68 63 81 63 43 0 -41 15 -54 45 -40 14 7 35 12 46 12 17
0 18 -2 7 -12 -21 -20 -56 -38 -72 -38 -8 0 -21 -6 -28 -14 -31 -30 -130 -68
-127 -48 4 25 -4 23 -15 -5 -10 -22 -23 -33 -46 -38 -17 -4 -36 -15 -43 -26
-6 -10 -22 -19 -35 -19 -22 0 -23 3 -21 52 2 31 -1 53 -8 55 -15 5 -23 -9 -28
-53 -3 -20 -13 -48 -23 -63 -10 -14 -19 -41 -21 -58 -2 -30 0 -33 24 -33 22 0
25 -3 20 -20 -5 -16 -2 -20 14 -20 17 0 21 -6 21 -33 0 -40 -15 -57 -51 -57
-33 0 -45 -15 -29 -35 7 -8 9 -22 6 -31 -9 -23 22 -54 53 -54 41 0 68 25 75
67 10 67 13 80 20 92 4 6 11 9 16 6 5 -3 20 0 34 6 22 10 29 8 55 -14 17 -14
40 -28 51 -32 11 -3 20 -14 20 -23 0 -13 2 -13 14 4 13 17 12 20 -2 28 -23 12
-62 48 -62 57 0 9 58 -4 87 -19 12 -7 23 -24 25 -39 2 -19 10 -29 31 -34 24
-6 27 -5 27 17 0 14 7 27 15 30 8 3 28 28 45 55 31 51 44 59 54 34 8 -21 23
-19 29 5 6 22 35 27 43 7 2 -7 1 -31 -4 -52 -8 -38 -10 -40 -44 -40 -20 0 -40
-3 -44 -7 -4 -5 -18 -8 -30 -8 -21 0 -22 -3 -13 -28 8 -23 16 -28 45 -29 45
-1 49 -6 34 -42 -15 -37 -52 -47 -220 -55 -25 -2 -53 -6 -64 -11 -11 -5 -26
-4 -37 3 -10 7 -29 12 -42 12 -13 0 -28 5 -35 12 -9 9 -21 7 -51 -7 -37 -16
-53 -17 -207 -6 -180 12 -344 32 -492 58 -77 14 -92 19 -86 32 3 9 9 29 13 46
4 16 17 35 29 41 12 6 30 17 39 25 10 8 34 22 54 31 26 12 38 24 42 46 4 19
22 42 49 63 25 21 40 27 36 17 -6 -15 -5 -15 22 0 16 9 26 22 23 29 -3 8 3 23
12 33 20 22 7 26 -28 9 -21 -10 -22 -10 -2 6 11 8 37 18 58 22 47 7 89 38 69
51 -12 8 -11 15 2 40 22 43 21 55 -3 42 -30 -15 -34 -13 -27 20 5 28 4 30 -25
30 -17 0 -32 -6 -36 -16 -8 -21 -93 -85 -105 -78 -5 3 -19 -2 -30 -13 -16 -14
-20 -14 -16 -3 4 10 -3 20 -18 27 -22 10 -26 7 -54 -38 -61 -100 -114 -258
-126 -376 -6 -52 -10 -63 -23 -59 -9 3 -52 14 -96 26 -113 31 -223 84 -271
131 -30 30 -44 37 -50 28 -11 -18 -18 -303 -9 -384 6 -60 11 -72 46 -110 70
-76 205 -131 460 -189 19 -4 40 -30 85 -102 35 -58 92 -130 139 -179 84 -86
232 -192 247 -177 5 5 11 32 15 60 3 29 12 57 19 63 18 15 18 51 -1 95 -10 25
-12 41 -5 54 23 43 15 56 -56 89 -97 45 -94 42 -43 37 26 -3 149 -10 275 -17
126 -6 233 -15 239 -20 5 -5 8 -25 7 -44 -2 -25 6 -46 28 -76 16 -23 30 -47
30 -54 0 -7 11 -29 25 -49 14 -20 25 -50 25 -66 0 -33 7 -35 60 -20 23 7 45
25 65 52 54 74 65 100 59 143 -4 32 0 47 20 78 14 21 26 42 26 47 0 6 18 10
41 10 37 0 39 -1 25 -16 -9 -8 -16 -29 -16 -47 0 -17 -5 -45 -12 -63 -10 -29
-9 -36 6 -53 10 -11 22 -18 27 -15 20 12 52 103 53 150 l1 52 80 6 c350 30
704 117 835 205 79 53 80 56 80 319 l0 233 -34 -35 c-19 -21 -70 -53 -117 -75
-88 -41 -245 -89 -255 -78 -4 4 -13 44 -20 91 -35 217 -162 443 -331 589 -47
40 -75 57 -95 57 -15 0 -28 -4 -28 -10 0 -5 -6 -7 -12 -5 -7 3 -20 1 -28 -5
-12 -7 -12 -12 -2 -22 16 -16 15 -28 -3 -28 -9 0 -20 11 -25 24 -10 26 -56 66
-76 66 -8 0 -14 -3 -14 -6z m-1424 -875 c47 -14 68 -43 71 -97 1 -26 7 -60 14
-77 14 -38 -1 -82 -33 -94 -20 -7 -137 11 -159 25 -5 3 -9 42 -9 86 l0 81 35
-7 c114 -20 107 -20 103 0 -2 13 -20 22 -68 34 -60 14 -65 17 -68 44 -4 28 -3
28 40 21 24 -3 57 -11 74 -16z m2161 1 c64 -39 69 -142 9 -207 -26 -29 -45
-38 -92 -48 l-59 -12 -7 81 c-4 44 -6 81 -5 82 1 1 14 5 30 9 l27 7 0 -56 0
-56 28 6 c60 14 88 73 57 120 -16 25 -20 26 -81 19 l-64 -7 0 31 c0 27 4 31
38 36 20 4 42 8 47 10 23 8 42 4 72 -15z m-1962 -35 c44 -8 86 -14 93 -15 18
0 15 -51 -8 -94 l-19 -38 35 -69 34 -69 -28 0 c-24 0 -32 8 -60 65 -26 54 -36
65 -57 65 -24 0 -25 -3 -25 -55 0 -55 -4 -61 -34 -49 -13 5 -16 23 -16 90 l0
83 55 -2 c73 -3 75 16 3 27 -57 8 -58 9 -58 42 0 19 1 34 3 34 1 0 38 -7 82
-15z m1665 -96 l0 -100 48 6 c26 4 55 9 65 12 13 3 17 -2 17 -26 0 -32 -5 -35
-80 -46 -25 -3 -57 -8 -72 -11 l-28 -6 0 136 0 136 25 0 25 0 0 -101z m-110
54 c0 -21 -8 -52 -19 -69 l-18 -30 34 -58 c19 -32 33 -59 31 -61 -2 -1 -14 -5
-28 -8 -22 -5 -29 0 -53 43 -22 39 -34 50 -53 50 -22 0 -24 -3 -24 -54 0 -50
-2 -54 -26 -59 -32 -6 -36 3 -32 88 l3 69 53 12 c49 11 82 28 71 38 -2 2 -29
0 -59 -4 -30 -4 -58 -6 -62 -3 -5 2 -8 17 -8 33 0 27 2 28 73 38 122 16 117
17 117 -25z m-1271 -18 c38 -33 65 -103 57 -148 -11 -57 -59 -92 -122 -88 -30
1 -82 58 -94 102 -31 114 75 204 159 134z m1061 20 c0 -15 -93 -256 -101 -260
-5 -3 -21 22 -36 56 l-28 62 -24 -67 c-13 -36 -27 -66 -31 -66 -9 0 -89 191
-97 232 -5 25 -3 28 20 28 21 0 28 -9 47 -60 12 -33 25 -60 29 -60 3 0 17 29
29 65 25 69 36 79 46 41 3 -13 14 -43 24 -67 l19 -44 18 55 c26 79 33 90 60
90 14 0 25 -2 25 -5z m-933 -13 c19 -12 4 -77 -23 -103 l-24 -22 0 60 c0 72
11 88 47 65z m163 -14 c0 -6 -23 -38 -51 -70 l-51 -58 57 -63 57 -62 -33 -3
c-29 -3 -39 3 -74 43 -43 50 -55 50 -55 -2 0 -28 -3 -33 -24 -33 -22 0 -25 5
-28 43 -3 40 1 47 72 130 60 71 79 87 102 87 15 0 28 -5 28 -12z m168 2 l62 0
0 -30 c0 -40 -13 -44 -115 -35 l-85 7 0 35 c0 36 0 36 38 29 20 -3 65 -6 100
-6z m184 -95 l37 -40 1 73 c0 70 1 72 25 72 l25 0 0 -130 c0 -71 -4 -130 -9
-130 -4 0 -45 38 -90 85 -79 82 -81 86 -81 132 l1 48 27 -35 c15 -19 44 -53
64 -75z m-142 -35 l0 -30 -65 0 c-58 0 -65 -2 -65 -20 0 -18 7 -20 75 -20 l75
0 0 -30 0 -30 -100 0 -100 0 0 80 0 80 90 0 90 0 0 -30z m100 -87 c0 -39 -2
-43 -25 -43 -24 0 -25 2 -25 67 l0 66 25 -23 c19 -18 25 -34 25 -67z"/>
<path d="M400 1271 c0 -24 4 -26 53 -35 32 -6 37 -4 37 12 0 13 -9 22 -27 26
-16 4 -36 9 -45 12 -13 4 -18 0 -18 -15z"/>
<path d="M850 1292 c-33 -26 -30 -80 5 -109 30 -27 44 -28 70 -9 30 22 26 83
-9 112 -33 29 -37 29 -66 6z"/>
<path d="M944 2299 c-8 -13 13 -29 39 -29 25 0 21 15 -8 28 -17 8 -26 8 -31 1z"/>
<path d="M1315 2258 c-13 -8 -14 -12 -5 -18 15 -9 62 2 67 17 5 13 -38 14 -62
1z"/>
<path d="M917 2244 c-12 -12 -8 -22 12 -29 33 -10 33 -42 0 -56 -27 -11 -28
-13 -12 -25 15 -10 21 -10 34 2 8 8 20 14 26 14 19 0 26 53 9 66 -9 6 -13 14
-9 17 3 4 -1 7 -10 7 -8 0 -22 2 -29 5 -8 3 -17 2 -21 -1z"/>
<path d="M836 2211 c-21 -23 -42 -27 -48 -10 -2 6 -23 -11 -48 -37 -44 -48
-42 -67 3 -47 66 30 99 43 111 43 16 0 51 38 43 46 -4 4 -13 1 -21 -5 -12 -10
-15 -8 -18 10 l-3 21 -19 -21z"/>
<path d="M1150 1887 c-17 -13 -43 -87 -31 -87 19 0 61 51 61 75 0 28 -7 31
-30 12z"/>
</g>
</svg>
