<svg width="13" height="12" viewBox="0 0 13 12" fill="none" xmlns="http://www.w3.org/2000/svg">
<path fill-rule="evenodd" clip-rule="evenodd" d="M0.396504 0.00796984C0.208918 0.0384856 0.0759704 0.15633 0.0286486 0.334044C-0.0344979 0.571122 -0.12683 0.434711 2.05038 3.32194L4.06688 5.99606L2.04944 8.67142C-0.14649 11.5835 -0.0404671 11.4263 0.0262355 11.6726C0.0581644 11.7906 0.215624 11.9478 0.326016 11.9718C0.364778 11.9803 0.412024 11.9921 0.430973 11.998C0.449922 12.0039 0.512154 11.9962 0.569255 11.981C0.671849 11.9535 12.422 6.57071 12.7154 6.41676C12.8013 6.3717 12.8914 6.30117 12.9228 6.25441C13.0464 6.0704 13.0189 5.81756 12.8594 5.67092C12.7903 5.60746 11.2194 4.87615 6.69592 2.80168C3.35697 1.27043 0.596535 0.0117085 0.561609 0.0045343C0.526683 -0.0026652 0.452386 -0.00112426 0.396504 0.00796984Z" fill="#FFE500"/>
</svg>
