<svg width="44" height="44" viewBox="0 0 44 44" fill="none" xmlns="http://www.w3.org/2000/svg">
<rect width="44" height="44" rx="4" fill="#FFE500"/>
<path fill-rule="evenodd" clip-rule="evenodd" d="M12.2802 10.2325C11.3639 10.4313 10.581 11.1329 10.2688 12.0352C10.1927 12.2552 10.1538 12.4863 10.1538 12.7191V21.3825V30.0309C10.1538 30.2739 10.191 30.5156 10.264 30.7474C10.4773 31.4241 10.9612 31.9939 11.5816 32.299C12.2417 32.6234 11.7609 32.6064 20.2636 32.6072C24.7369 32.6076 27.9858 32.5893 27.9858 32.5637C27.9858 32.5395 27.8319 32.0254 27.6438 31.4213C27.4557 30.8173 27.3113 30.3231 27.323 30.3231C27.3568 30.3231 29.0386 31.7744 29.8014 32.4619C30.5815 33.1649 33.4113 35.5384 33.4695 35.5384C33.5285 35.5384 33.5153 12.8724 33.4561 12.4916C33.2926 11.4389 32.3469 10.4554 31.2815 10.23C30.7939 10.1268 12.7566 10.1292 12.2802 10.2325ZM19.7781 16.2411C19.8273 16.3003 19.826 16.3191 19.7718 16.3353C18.4495 16.7318 17.672 17.0641 16.9604 17.5369C16.4554 17.8725 16.3973 17.9489 16.7783 17.7765C18.7416 16.888 21.1374 16.5441 23.3005 16.8404C24.3897 16.9895 25.742 17.3726 26.6364 17.7852C26.8401 17.8792 27.0158 17.9471 27.0268 17.9361C27.0658 17.8972 26.2139 17.3649 25.7226 17.1212C25.2461 16.8848 24.5176 16.5945 24.0683 16.462C23.8668 16.4026 23.8605 16.3951 23.9392 16.3082C24.0499 16.1861 24.3752 16.1888 25.0052 16.317C25.8219 16.4832 26.7119 16.8552 27.4241 17.3281C27.7151 17.5214 27.7484 17.5645 28.007 18.0832C28.9329 19.9402 29.5579 22.2887 29.6584 24.288L29.6685 24.4876C29.6828 24.7731 29.5725 25.0507 29.3662 25.2485C28.9129 25.6832 28.5764 25.9264 28.0853 26.1741C27.5514 26.4434 26.95 26.6337 26.3446 26.7248C25.51 26.8504 25.5629 26.868 25.1043 26.3123C24.7139 25.8391 24.6391 25.7047 24.7651 25.7029C24.8994 25.7009 25.6768 25.3485 26.0254 25.1316C26.3842 24.9082 26.9413 24.4411 26.9413 24.3637C26.9413 24.3423 26.6378 24.4807 26.2669 24.6712C25.5048 25.0625 25.0277 25.2477 24.3199 25.4268C22.5165 25.8834 20.7412 25.8475 19.0574 25.3208C18.5764 25.1703 17.2982 24.6664 16.9478 24.4891C16.8086 24.4187 16.6947 24.379 16.6947 24.401C16.6947 24.4521 17.1059 24.8454 17.3703 25.0472C17.6415 25.2542 18.2396 25.569 18.6192 25.7044C18.7696 25.7581 18.8219 25.9443 18.7213 26.0683L18.4949 26.3476L18.251 26.6484C18.1329 26.7941 17.9512 26.873 17.7641 26.8598C16.8958 26.7986 15.9596 26.5174 15.2824 26.1147C15.0442 25.9729 14.7152 25.7103 14.4641 25.4615C14.1965 25.1962 14.0522 24.831 14.0661 24.4544L14.0739 24.2446C14.1354 22.5904 14.5632 20.7482 15.3038 18.9492C15.7261 17.9233 15.9198 17.58 16.1854 17.3862C16.7913 16.9444 17.9356 16.4515 18.7092 16.2991C19.4454 16.1541 19.6946 16.1406 19.7781 16.2411ZM19.1197 20.8877C18.8332 20.9357 18.6033 21.0716 18.367 21.3329C18.1049 21.6224 18.0229 21.8459 18.0204 22.2766C18.0187 22.584 18.041 22.6925 18.1479 22.8975C18.412 23.4033 18.8315 23.6644 19.3834 23.6662C20.1287 23.6687 20.6608 23.1402 20.7128 22.346C20.7329 22.0382 20.7183 21.9541 20.598 21.6865C20.331 21.0923 19.7553 20.7812 19.1197 20.8877ZM24.0139 20.8885C23.1211 21.0682 22.6471 22.0786 23.0645 22.9126C23.3148 23.4127 23.7209 23.6677 24.2661 23.6668C25.0479 23.6657 25.6269 23.0588 25.6165 22.2518C25.6112 21.8339 25.5208 21.6075 25.2356 21.297C24.9105 20.9432 24.4716 20.7964 24.0139 20.8885Z" fill="black"/>
</svg>
