<svg width="44" height="44" viewBox="0 0 44 44" fill="none" xmlns="http://www.w3.org/2000/svg">
<rect width="44" height="44" rx="4" fill="#FFE500"/>
<path fill-rule="evenodd" clip-rule="evenodd" d="M10.7965 12.2146C10.7797 12.2311 10.7666 12.3172 10.7671 12.4059C10.7681 12.5503 10.8949 12.7174 11.9742 13.997C12.8553 15.0414 13.1932 15.4741 13.2282 15.6024C13.2609 15.722 13.2723 17.5121 13.2641 21.1952L13.2524 26.4063C13.2521 26.5413 13.2176 26.6741 13.1521 26.7922C13.0971 26.8913 12.4763 27.6597 11.7723 28.4997C10.5326 29.9792 10.4924 30.0333 10.4924 30.2216C10.4924 30.329 10.5794 30.416 10.6868 30.416H13.959H17.2117C17.3295 30.416 17.4247 30.32 17.4236 30.2022C17.4218 29.9891 17.4173 29.9831 16.1021 28.4152C15.1486 27.2785 14.7631 26.786 14.7128 26.6403C14.6521 26.4644 14.6435 25.8551 14.6458 21.8887C14.6476 18.8235 14.6635 17.3609 14.6944 17.4064C14.7196 17.4436 16.0922 20.3808 17.7447 23.9337L20.598 30.0687C20.6907 30.268 20.8873 30.3985 21.107 30.4064C21.3217 30.4142 21.5182 30.2862 21.5979 30.0867L24.0602 23.9241C25.4876 20.3518 26.6727 17.4093 26.6937 17.3854C26.7148 17.3615 26.7266 19.7599 26.7199 22.7151L26.711 26.6477C26.709 27.568 26.3318 28.4477 25.6667 29.0838L24.7558 29.9549C24.6734 30.0337 24.631 30.1454 24.6404 30.259C24.6488 30.3605 24.7335 30.4387 24.8354 30.439L29.2279 30.45L33.6087 30.461C33.7146 30.4613 33.8006 30.3755 33.8006 30.2695C33.8006 30.0796 33.7905 30.0677 32.8398 29.1327C32.3114 28.613 31.8596 28.1533 31.8359 28.1111C31.777 28.0065 31.7775 14.6393 31.8364 14.5306C31.8605 14.4863 32.3225 14.0289 32.8632 13.5143L33.7035 12.7144C33.7946 12.6276 33.8462 12.5073 33.8462 12.3816C33.8462 12.2728 33.758 12.1846 33.6492 12.1846H30.6321C27.6176 12.1846 27.4154 12.1895 27.3755 12.2633C27.3522 12.3067 26.3229 14.8236 25.0883 17.8566C23.8537 20.8895 22.8295 23.3964 22.8124 23.4274C22.795 23.4591 21.6347 21.0071 20.1657 17.8342L18.6238 14.504C17.9691 13.0898 16.5525 12.1846 14.994 12.1846H14.1884C12.3396 12.1846 10.8132 12.1981 10.7965 12.2146Z" fill="black"/>
</svg>
