<svg width="30" height="30" viewBox="0 0 30 30" fill="none" xmlns="http://www.w3.org/2000/svg">
<path fill-rule="evenodd" clip-rule="evenodd" d="M25.3835 5.10864C23.786 5.69663 4.09715 13.2644 3.80716 13.402C2.84353 13.8589 2.73087 14.4625 3.53307 14.8708C3.61052 14.9102 4.94319 15.3365 6.49455 15.8183L9.31525 16.6942L15.7202 12.6855C19.2429 10.4807 22.196 8.65204 22.2827 8.62184C22.5002 8.54595 22.6874 8.55304 22.7748 8.64048C22.836 8.70168 22.8385 8.73239 22.7899 8.82233C22.7578 8.88183 20.4185 11.0073 17.5915 13.5456C14.7646 16.0839 12.444 18.1805 12.4347 18.2048C12.4254 18.2291 12.3298 19.4964 12.2222 21.0209L12.0266 23.7929L12.2391 23.7642C12.356 23.7484 12.5411 23.6881 12.6504 23.6301C12.7598 23.5721 13.4958 22.9051 14.286 22.1479C15.0762 21.3906 15.7501 20.7605 15.7835 20.7477C15.817 20.7348 17.0754 21.6267 18.58 22.7295C20.0845 23.8324 21.4335 24.7892 21.5776 24.8558C21.9555 25.0306 22.3813 25.0479 22.6578 24.8999C22.9048 24.7676 23.1462 24.4392 23.2478 24.0971C23.2871 23.9648 24.1472 19.9884 25.1593 15.2606C26.8443 7.38928 26.9994 6.62721 27 6.21867C27.0005 5.83268 26.9845 5.74087 26.8811 5.5377C26.8082 5.39446 26.6839 5.24822 26.5625 5.16275C26.2847 4.96728 25.8249 4.9462 25.3835 5.10864Z" fill="#fff"/>
</svg>
