<svg width="30" height="30" viewBox="0 0 30 30" fill="none" xmlns="http://www.w3.org/2000/svg">
<path fill-rule="evenodd" clip-rule="evenodd" d="M18.8077 5.07055C16.8867 5.40733 15.3695 6.76999 14.8615 8.61487C14.774 8.93264 14.756 9.12123 14.7534 9.74996C14.7517 10.1646 14.7668 10.593 14.7868 10.7019L14.8233 10.8999L14.5042 10.8715C12.4302 10.6872 10.7513 10.2253 9.08049 9.37913C7.53741 8.59769 5.92957 7.37075 4.94371 6.22232C4.7964 6.05073 4.65479 5.91712 4.62898 5.92548C4.60322 5.9338 4.50107 6.1185 4.40194 6.33597C3.72548 7.81967 3.85174 9.535 4.73546 10.8672C4.99415 11.2571 5.4155 11.7179 5.75787 11.9851L6.11418 12.2632H5.921C5.50785 12.2632 4.64386 12.037 4.17999 11.8074C4.07718 11.7565 3.97583 11.7149 3.95478 11.7149C3.88829 11.7149 3.9763 12.5525 4.0849 12.953C4.51256 14.5306 5.71935 15.7781 7.32209 16.2995C7.58808 16.3861 7.77561 16.468 7.73883 16.4817C7.52634 16.5608 6.82822 16.6143 6.28598 16.593L5.6772 16.569L5.70757 16.6864C5.75928 16.8864 6.10693 17.5272 6.32328 17.8215C7.15566 18.9534 8.51451 19.7308 9.84077 19.8339C10.0415 19.8495 10.2057 19.8779 10.2057 19.897C10.2057 19.9743 9.15009 20.6092 8.50443 20.9202C7.03463 21.6283 5.58221 21.9346 3.87185 21.8972L3 21.8782L3.24743 22.0289C3.60779 22.2484 4.69953 22.7834 5.19025 22.9808C7.8316 24.0435 10.9154 24.2854 13.8262 23.6583C18.11 22.7356 21.6341 19.8494 23.414 15.806C24.175 14.0771 24.5567 12.3793 24.5958 10.5496L24.6133 9.72711L24.9543 9.46121C25.3903 9.12114 25.8803 8.66797 26.2491 8.26347C26.5645 7.91764 27.0262 7.32053 26.9988 7.29394C26.9895 7.28489 26.847 7.3309 26.6822 7.39625C26.0584 7.64356 24.6109 7.99989 24.3946 7.95945C24.3412 7.94945 24.3799 7.9048 24.5198 7.81492C24.8752 7.58666 25.5102 6.95538 25.78 6.56198C26.0142 6.22036 26.3569 5.55064 26.3584 5.43151C26.3587 5.40628 26.0699 5.52308 25.7166 5.69101C25.0781 5.99457 24.2451 6.28707 23.5922 6.437L23.2508 6.51537L22.9652 6.25888C21.8628 5.26846 20.2721 4.81383 18.8077 5.07055Z" fill="#fff"/>
</svg>
